<?xml version="1.0" encoding="UTF-8" standalone="no"?>
<!DOCTYPE svg PUBLIC "-//W3C//DTD SVG 1.1//EN"
 "http://www.w3.org/Graphics/SVG/1.1/DTD/svg11.dtd">
<!-- Generated by graphviz version 2.43.0 (0)
 -->
<!-- Title: sourcetree Pages: 1 -->
<svg width="212pt" height="188pt"
 viewBox="0.00 0.00 212.00 188.00" xmlns="http://www.w3.org/2000/svg" xmlns:xlink="http://www.w3.org/1999/xlink">
<g id="graph0" class="graph" transform="scale(1 1) rotate(0) translate(4 184)">
<title>sourcetree</title>
<polygon fill="white" stroke="transparent" points="-4,4 -4,-184 208,-184 208,4 -4,4"/>
<!-- mulle&#45;stacktrace -->
<g id="node1" class="node">
<title>mulle&#45;stacktrace</title>
<polygon fill="yellow" stroke="black" points="172.5,-180 37.5,-180 37.5,-144 172.5,-144 172.5,-180"/>
<text text-anchor="middle" x="105" y="-158.3" font-family="Times,serif" font-size="14.00">mulle&#45;stacktrace</text>
</g>
<!-- mulle&#45;dlfcn -->
<g id="node4" class="node">
<title>mulle&#45;dlfcn</title>
<g id="a_node4"><a xlink:href="https://github.com/mulle-core/mulle-dlfcn" xlink:title="mulle&#45;dlfcn">
<polygon fill="lightgrey" stroke="black" points="153,-108 57,-108 57,-72 153,-72 153,-108"/>
<text text-anchor="middle" x="105" y="-86.3" font-family="Times,serif" font-size="14.00">mulle&#45;dlfcn</text>
</a>
</g>
</g>
<!-- mulle&#45;stacktrace&#45;&gt;mulle&#45;dlfcn -->
<g id="edge3" class="edge">
<title>mulle&#45;stacktrace&#45;&gt;mulle&#45;dlfcn</title>
<path fill="none" stroke="black" d="M105,-143.7C105,-135.98 105,-126.71 105,-118.11"/>
<polygon fill="black" stroke="black" points="108.5,-118.1 105,-108.1 101.5,-118.1 108.5,-118.1"/>
</g>
<!-- dlfcn&#45;win32 -->
<g id="node2" class="node">
<title>dlfcn&#45;win32</title>
<g id="a_node2"><a xlink:href="https://github.com/mulle-core/dlfcn-win32" xlink:title="dlfcn&#45;win32">
<polygon fill="lightgrey" stroke="black" points="100,-36 0,-36 0,0 100,0 100,-36"/>
<text text-anchor="middle" x="50" y="-14.3" font-family="Times,serif" font-size="14.00">dlfcn&#45;win32</text>
</a>
</g>
</g>
<!-- mulle&#45;c11 -->
<g id="node3" class="node">
<title>mulle&#45;c11</title>
<g id="a_node3"><a xlink:href="https://github.com/mulle-c/mulle-c11" xlink:title="mulle&#45;c11">
<polygon fill="lightgrey" stroke="black" points="204,-36 118,-36 118,0 204,0 204,-36"/>
<text text-anchor="middle" x="161" y="-14.3" font-family="Times,serif" font-size="14.00">mulle&#45;c11</text>
</a>
</g>
</g>
<!-- mulle&#45;dlfcn&#45;&gt;dlfcn&#45;win32 -->
<g id="edge1" class="edge">
<title>mulle&#45;dlfcn&#45;&gt;dlfcn&#45;win32</title>
<path fill="none" stroke="black" d="M91.4,-71.7C84.88,-63.39 76.93,-53.28 69.75,-44.14"/>
<polygon fill="black" stroke="black" points="72.37,-41.81 63.44,-36.1 66.87,-46.13 72.37,-41.81"/>
</g>
<!-- mulle&#45;dlfcn&#45;&gt;mulle&#45;c11 -->
<g id="edge2" class="edge">
<title>mulle&#45;dlfcn&#45;&gt;mulle&#45;c11</title>
<path fill="none" stroke="black" d="M118.84,-71.7C125.49,-63.39 133.58,-53.28 140.89,-44.14"/>
<polygon fill="black" stroke="black" points="143.8,-46.1 147.32,-36.1 138.34,-41.73 143.8,-46.1"/>
</g>
</g>
</svg>
