<?xml version="1.0" encoding="UTF-8" standalone="no"?>
<!DOCTYPE svg PUBLIC "-//W3C//DTD SVG 1.1//EN"
 "http://www.w3.org/Graphics/SVG/1.1/DTD/svg11.dtd">
<!-- Generated by graphviz version 2.43.0 (0)
 -->
<!-- Title: sourcetree Pages: 1 -->
<svg width="276pt" height="188pt"
 viewBox="0.00 0.00 276.00 188.00" xmlns="http://www.w3.org/2000/svg" xmlns:xlink="http://www.w3.org/1999/xlink">
<g id="graph0" class="graph" transform="scale(1 1) rotate(0) translate(4 184)">
<title>sourcetree</title>
<polygon fill="white" stroke="transparent" points="-4,4 -4,-184 272,-184 272,4 -4,4"/>
<!-- mulle&#45;stacktrace -->
<g id="node1" class="node">
<title>mulle&#45;stacktrace</title>
<polygon fill="yellow" stroke="black" points="178.5,-180 43.5,-180 43.5,-144 178.5,-144 178.5,-180"/>
<text text-anchor="middle" x="111" y="-158.3" font-family="Times,serif" font-size="14.00">mulle&#45;stacktrace</text>
</g>
<!-- libbacktrace -->
<g id="node3" class="node">
<title>libbacktrace</title>
<g id="a_node3"><a xlink:href="https://github.com/mulle-core/libbacktrace" xlink:title="libbacktrace">
<polygon fill="lightgrey" stroke="black" points="104,-108 0,-108 0,-72 104,-72 104,-108"/>
<text text-anchor="middle" x="52" y="-86.3" font-family="Times,serif" font-size="14.00">libbacktrace</text>
</a>
</g>
</g>
<!-- mulle&#45;stacktrace&#45;&gt;libbacktrace -->
<g id="edge3" class="edge">
<title>mulle&#45;stacktrace&#45;&gt;libbacktrace</title>
<path fill="none" stroke="black" d="M96.42,-143.7C89.34,-135.3 80.72,-125.07 72.95,-115.86"/>
<polygon fill="black" stroke="black" points="75.54,-113.49 66.42,-108.1 70.19,-118.01 75.54,-113.49"/>
</g>
<!-- mulle&#45;dlfcn -->
<g id="node5" class="node">
<title>mulle&#45;dlfcn</title>
<g id="a_node5"><a xlink:href="https://github.com/mulle-core/mulle-dlfcn" xlink:title="mulle&#45;dlfcn">
<polygon fill="lightgrey" stroke="black" points="218,-108 122,-108 122,-72 218,-72 218,-108"/>
<text text-anchor="middle" x="170" y="-86.3" font-family="Times,serif" font-size="14.00">mulle&#45;dlfcn</text>
</a>
</g>
</g>
<!-- mulle&#45;stacktrace&#45;&gt;mulle&#45;dlfcn -->
<g id="edge4" class="edge">
<title>mulle&#45;stacktrace&#45;&gt;mulle&#45;dlfcn</title>
<path fill="none" stroke="black" d="M125.58,-143.7C132.66,-135.3 141.28,-125.07 149.05,-115.86"/>
<polygon fill="black" stroke="black" points="151.81,-118.01 155.58,-108.1 146.46,-113.49 151.81,-118.01"/>
</g>
<!-- dlfcn&#45;win32 -->
<g id="node2" class="node">
<title>dlfcn&#45;win32</title>
<g id="a_node2"><a xlink:href="https://github.com/mulle-core/dlfcn-win32" xlink:title="dlfcn&#45;win32">
<polygon fill="lightgrey" stroke="black" points="164,-36 64,-36 64,0 164,0 164,-36"/>
<text text-anchor="middle" x="114" y="-14.3" font-family="Times,serif" font-size="14.00">dlfcn&#45;win32</text>
</a>
</g>
</g>
<!-- mulle&#45;c11 -->
<g id="node4" class="node">
<title>mulle&#45;c11</title>
<g id="a_node4"><a xlink:href="https://github.com/mulle-c/mulle-c11" xlink:title="mulle&#45;c11">
<polygon fill="lightgrey" stroke="black" points="268,-36 182,-36 182,0 268,0 268,-36"/>
<text text-anchor="middle" x="225" y="-14.3" font-family="Times,serif" font-size="14.00">mulle&#45;c11</text>
</a>
</g>
</g>
<!-- mulle&#45;dlfcn&#45;&gt;dlfcn&#45;win32 -->
<g id="edge1" class="edge">
<title>mulle&#45;dlfcn&#45;&gt;dlfcn&#45;win32</title>
<path fill="none" stroke="black" d="M156.16,-71.7C149.51,-63.39 141.42,-53.28 134.11,-44.14"/>
<polygon fill="black" stroke="black" points="136.66,-41.73 127.68,-36.1 131.2,-46.1 136.66,-41.73"/>
</g>
<!-- mulle&#45;dlfcn&#45;&gt;mulle&#45;c11 -->
<g id="edge2" class="edge">
<title>mulle&#45;dlfcn&#45;&gt;mulle&#45;c11</title>
<path fill="none" stroke="black" d="M183.6,-71.7C190.12,-63.39 198.07,-53.28 205.25,-44.14"/>
<polygon fill="black" stroke="black" points="208.13,-46.13 211.56,-36.1 202.63,-41.81 208.13,-46.13"/>
</g>
</g>
</svg>
